
        <svg xmlns="http://www.w3.org/2000/svg" xmlns:xlink="http://www.w3.org/1999/xlink" version="1.1" width="3187.5" height="1125.390715357118" viewBox="0 0 3187.5 1125.390715357118">
			
			<g transform="scale(9.375) translate(10, 10)">
				<defs id="SvgjsDefs1770"/><g id="SvgjsG1771" featureKey="S6ay6y-0" transform="matrix(1.0418837721546959,0,0,1.0418837721546959,-2.0941871173081066,-2.0556366099271157)" fill="#fff"><path xmlns="http://www.w3.org/2000/svg" d="M19.572,37.4l26.893,26.893c0.975,0.975,2.255,1.462,3.535,1.462s2.561-0.487,3.535-1.462L80.428,37.4  c1.949-1.949,1.949-5.122,0-7.071L53.536,3.438c-0.944-0.944-2.2-1.465-3.536-1.465s-2.591,0.521-3.535,1.465L19.572,30.329  C17.623,32.278,17.623,35.451,19.572,37.4z"/><path xmlns="http://www.w3.org/2000/svg" d="M96.505,53.594c1.98-1.981,1.98-5.206,0-7.188l-5.402-5.402c-0.96-0.96-2.236-1.489-3.594-1.489s-2.634,0.529-3.594,1.489h0  L50.765,74.151c-0.408,0.408-1.122,0.408-1.531,0L16.086,41.004c-0.96-0.96-2.236-1.489-3.594-1.489s-2.634,0.529-3.594,1.489  l-5.403,5.402c-1.98,1.981-1.98,5.206,0,7.188l42.91,42.91c0.96,0.96,2.236,1.489,3.594,1.489s2.634-0.529,3.594-1.489  L96.505,53.594z"/></g><g id="SvgjsG1772" featureKey="j5pGhi-0" transform="matrix(2.1281122883173906,0,0,2.1281122883173906,119.40413014230144,18.99744697802356)" fill="#fff"><path d="M0.28 7.359999999999999 l0 -1.72 l11.66 0 l0 1.72 l-4.86 0 l0 12.64 l-1.94 0 l0 -12.64 l-4.86 0 z M12.92 14.76 c0 -2.7 1.52 -5.52 4.86 -5.52 s4.86 2.82 4.86 5.52 s-1.52 5.52 -4.86 5.52 s-4.86 -2.82 -4.86 -5.52 z M14.74 14.76 c0 1.4 0.52 4 3.04 4 s3.04 -2.6 3.04 -4 s-0.52 -4 -3.04 -4 s-3.04 2.6 -3.04 4 z M26.180000000000003 15.26 c0 2.78 1.74 3.52 2.86 3.52 c1.92 0 2.82 -1.74 2.82 -4.04 c0 -1.34 -0.14 -3.92 -2.86 -3.92 c-2.54 0 -2.82 2.74 -2.82 4.44 z M24.500000000000004 24.14 l0 -14.6 l1.66 0 l0 1.48 l0.04 0 c0.42 -0.6 1.22 -1.78 3.12 -1.78 c2.78 0 4.36 2.28 4.36 5.22 c0 2.5 -1.04 5.84 -4.6 5.84 c-1.4 0 -2.32 -0.66 -2.78 -1.4 l-0.04 0 l0 5.24 l-1.76 0 z M37.92000000000001 5.640000000000001 l0 12.64 l7.28 0 l0 1.72 l-9.22 0 l0 -14.36 l1.94 0 z M48.680000000000014 9.54 l0 10.46 l-1.76 0 l0 -10.46 l1.76 0 z M48.680000000000014 7.640000000000001 l-1.76 0 l0 -2 l1.76 0 l0 2 z M59.84000000000001 12.879999999999999 l0 7.12 l-1.76 0 l0 -6.44 c0 -1.82 -0.52 -2.74 -2.24 -2.74 c-1 0 -2.76 0.64 -2.76 3.48 l0 5.7 l-1.76 0 l0 -10.46 l1.66 0 l0 1.48 l0.04 0 c0.38 -0.56 1.36 -1.78 3.16 -1.78 c1.62 0 3.66 0.66 3.66 3.64 z M69.56000000000002 16.72 l1.76 0 c-0.06 0.5 -0.54 1.98 -1.86 2.86 c-0.48 0.32 -1.16 0.72 -2.84 0.72 c-2.94 0 -4.68 -2.22 -4.68 -5.24 c0 -3.24 1.56 -5.82 5.02 -5.82 c3.02 0 4.5 2.4 4.5 6.1 l-7.64 0 c0 2.18 1.02 3.44 3.04 3.44 c1.66 0 2.64 -1.28 2.7 -2.06 z M63.820000000000014 13.940000000000001 l5.82 0 c-0.1 -1.62 -0.78 -3.12 -2.92 -3.12 c-1.62 0 -2.9 1.5 -2.9 3.12 z M87.36000000000001 15.82 l-5.76 0 l-1.5 4.18 l-2 0 l5.4 -14.36 l2.2 0 l5.2 14.36 l-2.12 0 z M82.20000000000002 14.1 l4.46 0 l-2.12 -6.32 l-0.04 0 z M94.26000000000002 9.54 l0 10.46 l-1.76 0 l0 -10.46 l1.76 0 z M94.26000000000002 7.640000000000001 l-1.76 0 l0 -2 l1.76 0 l0 2 z"/></g>
			</g>
		</svg>
	